{
	"patcher" : 	{
		"fileversion" : 1,
		"appversion" : 		{
			"major" : 8,
			"minor" : 5,
			"revision" : 2,
			"architecture" : "x64",
			"modernui" : 1
		}
,
		"classnamespace" : "box",
		"rect" : [ -607.0, -1353.0, 2492.0, 1319.0 ],
		"bglocked" : 0,
		"openinpresentation" : 0,
		"default_fontsize" : 12.0,
		"default_fontface" : 0,
		"default_fontname" : "Arial",
		"gridonopen" : 1,
		"gridsize" : [ 15.0, 15.0 ],
		"gridsnaponopen" : 1,
		"objectsnaponopen" : 1,
		"statusbarvisible" : 2,
		"toolbarvisible" : 1,
		"lefttoolbarpinned" : 0,
		"toptoolbarpinned" : 0,
		"righttoolbarpinned" : 0,
		"bottomtoolbarpinned" : 0,
		"toolbars_unpinned_last_save" : 0,
		"tallnewobj" : 0,
		"boxanimatetime" : 200,
		"enablehscroll" : 1,
		"enablevscroll" : 1,
		"devicewidth" : 0.0,
		"description" : "",
		"digest" : "",
		"tags" : "",
		"style" : "",
		"subpatcher_template" : "",
		"assistshowspatchername" : 0,
		"boxes" : [ 			{
				"box" : 				{
					"fontname" : "Arial",
					"fontsize" : 13.0,
					"id" : "obj-51",
					"maxclass" : "newobj",
					"numinlets" : 4,
					"numoutlets" : 1,
					"outlettype" : [ "signal" ],
					"patching_rect" : [ 1488.0, 470.0, 125.0, 23.0 ],
					"text" : "reson~ 100 613 200",
					"textcolor" : [ 0.0, 0.011764705882353, 1.0, 1.0 ]
				}

			}
, 			{
				"box" : 				{
					"bufsize" : 256,
					"calccount" : 2,
					"fgcolor" : [ 0.168627450980392, 0.0, 1.0, 1.0 ],
					"gridcolor" : [ 0.0, 0.0, 0.0, 0.0 ],
					"id" : "obj-49",
					"maxclass" : "scope~",
					"numinlets" : 2,
					"numoutlets" : 0,
					"patching_rect" : [ 1361.0, 554.0, 71.0, 359.0 ],
					"range" : [ -0.1, 0.1 ],
					"trigger" : 1
				}

			}
, 			{
				"box" : 				{
					"bufsize" : 256,
					"calccount" : 2,
					"fgcolor" : [ 0.168627450980392, 0.0, 1.0, 1.0 ],
					"gridcolor" : [ 0.0, 0.0, 0.0, 0.0 ],
					"id" : "obj-50",
					"maxclass" : "scope~",
					"numinlets" : 2,
					"numoutlets" : 0,
					"patching_rect" : [ 1455.0, 554.0, 71.0, 359.0 ],
					"range" : [ -0.1, 0.1 ],
					"trigger" : 1
				}

			}
, 			{
				"box" : 				{
					"fontname" : "Arial",
					"fontsize" : 13.0,
					"id" : "obj-44",
					"maxclass" : "newobj",
					"numinlets" : 2,
					"numoutlets" : 1,
					"outlettype" : [ "signal" ],
					"patching_rect" : [ 1399.0, 373.0, 75.0, 23.0 ],
					"text" : "cycle~ 0.73",
					"textcolor" : [ 0.0, 0.011764705882353, 1.0, 1.0 ]
				}

			}
, 			{
				"box" : 				{
					"fontname" : "Arial",
					"fontsize" : 13.0,
					"id" : "obj-45",
					"maxclass" : "newobj",
					"numinlets" : 1,
					"numoutlets" : 2,
					"outlettype" : [ "signal", "signal" ],
					"patching_rect" : [ 1399.0, 429.0, 50.0, 23.0 ],
					"text" : "zerox~",
					"textcolor" : [ 0.0, 0.011764705882353, 1.0, 1.0 ]
				}

			}
, 			{
				"box" : 				{
					"fontname" : "Arial",
					"fontsize" : 13.0,
					"id" : "obj-46",
					"maxclass" : "newobj",
					"numinlets" : 4,
					"numoutlets" : 1,
					"outlettype" : [ "signal" ],
					"patching_rect" : [ 1430.0, 505.0, 125.0, 23.0 ],
					"text" : "reson~ 100 615 200",
					"textcolor" : [ 0.0, 0.011764705882353, 1.0, 1.0 ]
				}

			}
, 			{
				"box" : 				{
					"fontname" : "Arial",
					"fontsize" : 13.0,
					"id" : "obj-47",
					"maxclass" : "newobj",
					"numinlets" : 1,
					"numoutlets" : 2,
					"outlettype" : [ "signal", "signal" ],
					"patching_rect" : [ 1481.0, 429.0, 50.0, 23.0 ],
					"text" : "zerox~",
					"textcolor" : [ 0.0, 0.011764705882353, 1.0, 1.0 ]
				}

			}
, 			{
				"box" : 				{
					"fontname" : "Arial",
					"fontsize" : 13.0,
					"id" : "obj-48",
					"maxclass" : "newobj",
					"numinlets" : 2,
					"numoutlets" : 1,
					"outlettype" : [ "signal" ],
					"patching_rect" : [ 1481.0, 373.0, 82.0, 23.0 ],
					"text" : "cycle~ 0.833",
					"textcolor" : [ 0.0, 0.011764705882353, 1.0, 1.0 ]
				}

			}
, 			{
				"box" : 				{
					"bgcolor" : [ 1.0, 1.0, 1.0, 1.0 ],
					"bufsize" : 256,
					"calccount" : 2,
					"fgcolor" : [ 0.168627450980392, 0.0, 1.0, 1.0 ],
					"gridcolor" : [ 0.0, 0.0, 0.0, 0.0 ],
					"id" : "obj-42",
					"maxclass" : "scope~",
					"numinlets" : 2,
					"numoutlets" : 0,
					"patching_rect" : [ 805.0, 554.0, 71.0, 359.0 ],
					"range" : [ -0.1, 0.1 ],
					"trigger" : 1
				}

			}
, 			{
				"box" : 				{
					"bgcolor" : [ 1.0, 1.0, 1.0, 1.0 ],
					"bufsize" : 256,
					"calccount" : 2,
					"fgcolor" : [ 0.168627450980392, 0.0, 1.0, 1.0 ],
					"gridcolor" : [ 0.0, 0.0, 0.0, 0.0 ],
					"id" : "obj-43",
					"maxclass" : "scope~",
					"numinlets" : 2,
					"numoutlets" : 0,
					"patching_rect" : [ 899.0, 554.0, 71.0, 359.0 ],
					"range" : [ -0.1, 0.1 ],
					"trigger" : 1
				}

			}
, 			{
				"box" : 				{
					"bgcolor" : [ 1.0, 1.0, 1.0, 1.0 ],
					"bufsize" : 256,
					"calccount" : 2,
					"fgcolor" : [ 0.168627450980392, 0.0, 1.0, 1.0 ],
					"gridcolor" : [ 0.0, 0.0, 0.0, 0.0 ],
					"id" : "obj-40",
					"maxclass" : "scope~",
					"numinlets" : 2,
					"numoutlets" : 0,
					"patching_rect" : [ 982.5, 554.0, 71.0, 359.0 ],
					"range" : [ -0.1, 0.1 ],
					"trigger" : 1
				}

			}
, 			{
				"box" : 				{
					"bgcolor" : [ 1.0, 1.0, 1.0, 1.0 ],
					"bufsize" : 256,
					"calccount" : 2,
					"fgcolor" : [ 0.168627450980392, 0.0, 1.0, 1.0 ],
					"gridcolor" : [ 0.0, 0.0, 0.0, 0.0 ],
					"id" : "obj-41",
					"maxclass" : "scope~",
					"numinlets" : 2,
					"numoutlets" : 0,
					"patching_rect" : [ 1076.5, 554.0, 71.0, 359.0 ],
					"range" : [ -0.1, 0.1 ],
					"trigger" : 1
				}

			}
, 			{
				"box" : 				{
					"bgcolor" : [ 1.0, 1.0, 1.0, 1.0 ],
					"bufsize" : 256,
					"calccount" : 2,
					"fgcolor" : [ 0.168627450980392, 0.0, 1.0, 1.0 ],
					"gridcolor" : [ 0.0, 0.0, 0.0, 0.0 ],
					"id" : "obj-39",
					"maxclass" : "scope~",
					"numinlets" : 2,
					"numoutlets" : 0,
					"patching_rect" : [ 723.0, 554.0, 71.0, 359.0 ],
					"range" : [ -0.1, 0.1 ],
					"trigger" : 1
				}

			}
, 			{
				"box" : 				{
					"bgcolor" : [ 1.0, 1.0, 1.0, 1.0 ],
					"bufsize" : 256,
					"calccount" : 2,
					"fgcolor" : [ 0.168627450980392, 0.0, 1.0, 1.0 ],
					"gridcolor" : [ 0.0, 0.0, 0.0, 0.0 ],
					"id" : "obj-38",
					"maxclass" : "scope~",
					"numinlets" : 2,
					"numoutlets" : 0,
					"patching_rect" : [ 1172.0, 554.0, 71.0, 359.0 ],
					"range" : [ -0.1, 0.1 ],
					"trigger" : 1
				}

			}
, 			{
				"box" : 				{
					"bgcolor" : [ 1.0, 1.0, 1.0, 1.0 ],
					"bufsize" : 256,
					"calccount" : 2,
					"fgcolor" : [ 0.168627450980392, 0.0, 1.0, 1.0 ],
					"gridcolor" : [ 0.0, 0.0, 0.0, 0.0 ],
					"id" : "obj-37",
					"maxclass" : "scope~",
					"numinlets" : 2,
					"numoutlets" : 0,
					"patching_rect" : [ 1266.0, 554.0, 71.0, 359.0 ],
					"range" : [ -0.1, 0.1 ],
					"trigger" : 1
				}

			}
, 			{
				"box" : 				{
					"bgcolor" : [ 1.0, 1.0, 1.0, 1.0 ],
					"fontname" : "Arial",
					"fontsize" : 13.0,
					"id" : "obj-28",
					"maxclass" : "newobj",
					"numinlets" : 2,
					"numoutlets" : 1,
					"outlettype" : [ "signal" ],
					"patching_rect" : [ 1303.5, 374.333344000000011, 82.0, 23.0 ],
					"text" : "cycle~ 0.991",
					"textcolor" : [ 0.0, 0.011764705882353, 1.0, 1.0 ]
				}

			}
, 			{
				"box" : 				{
					"bgcolor" : [ 1.0, 1.0, 1.0, 1.0 ],
					"fontname" : "Arial",
					"fontsize" : 13.0,
					"id" : "obj-29",
					"maxclass" : "newobj",
					"numinlets" : 1,
					"numoutlets" : 2,
					"outlettype" : [ "signal", "signal" ],
					"patching_rect" : [ 1303.5, 430.333344000000011, 73.0, 23.0 ],
					"text" : "zerox~ 0.4",
					"textcolor" : [ 0.0, 0.011764705882353, 1.0, 1.0 ]
				}

			}
, 			{
				"box" : 				{
					"bgcolor" : [ 1.0, 1.0, 1.0, 1.0 ],
					"fontname" : "Arial",
					"fontsize" : 13.0,
					"id" : "obj-33",
					"maxclass" : "newobj",
					"numinlets" : 2,
					"numoutlets" : 1,
					"outlettype" : [ "signal" ],
					"patching_rect" : [ 1220.5, 373.0, 75.0, 23.0 ],
					"text" : "cycle~ 0.99",
					"textcolor" : [ 0.0, 0.011764705882353, 1.0, 1.0 ]
				}

			}
, 			{
				"box" : 				{
					"bgcolor" : [ 1.0, 1.0, 1.0, 1.0 ],
					"fontname" : "Arial",
					"fontsize" : 13.0,
					"id" : "obj-34",
					"maxclass" : "newobj",
					"numinlets" : 1,
					"numoutlets" : 2,
					"outlettype" : [ "signal", "signal" ],
					"patching_rect" : [ 1220.5, 429.0, 73.0, 23.0 ],
					"text" : "zerox~ 0.4",
					"textcolor" : [ 0.0, 0.011764705882353, 1.0, 1.0 ]
				}

			}
, 			{
				"box" : 				{
					"bgcolor" : [ 1.0, 1.0, 1.0, 1.0 ],
					"fontname" : "Arial",
					"fontsize" : 13.0,
					"id" : "obj-35",
					"maxclass" : "newobj",
					"numinlets" : 4,
					"numoutlets" : 1,
					"outlettype" : [ "signal" ],
					"patching_rect" : [ 1274.5, 470.0, 125.0, 23.0 ],
					"text" : "reson~ 100 525 200",
					"textcolor" : [ 0.0, 0.011764705882353, 1.0, 1.0 ]
				}

			}
, 			{
				"box" : 				{
					"bgcolor" : [ 1.0, 1.0, 1.0, 1.0 ],
					"fontname" : "Arial",
					"fontsize" : 13.0,
					"id" : "obj-36",
					"maxclass" : "newobj",
					"numinlets" : 4,
					"numoutlets" : 1,
					"outlettype" : [ "signal" ],
					"patching_rect" : [ 1261.5, 505.0, 124.0, 23.0 ],
					"text" : "reson~ 100 411 200",
					"textcolor" : [ 0.0, 0.011764705882353, 1.0, 1.0 ]
				}

			}
, 			{
				"box" : 				{
					"bgcolor" : [ 1.0, 1.0, 1.0, 1.0 ],
					"fontname" : "Arial",
					"fontsize" : 13.0,
					"id" : "obj-12",
					"maxclass" : "newobj",
					"numinlets" : 2,
					"numoutlets" : 1,
					"outlettype" : [ "signal" ],
					"patching_rect" : [ 1131.0, 373.0, 82.0, 23.0 ],
					"text" : "cycle~ 0.995",
					"textcolor" : [ 0.0, 0.011764705882353, 1.0, 1.0 ]
				}

			}
, 			{
				"box" : 				{
					"bgcolor" : [ 1.0, 1.0, 1.0, 1.0 ],
					"fontname" : "Arial",
					"fontsize" : 13.0,
					"id" : "obj-22",
					"maxclass" : "newobj",
					"numinlets" : 1,
					"numoutlets" : 2,
					"outlettype" : [ "signal", "signal" ],
					"patching_rect" : [ 1131.0, 429.0, 73.0, 23.0 ],
					"text" : "zerox~ 0.4",
					"textcolor" : [ 0.0, 0.011764705882353, 1.0, 1.0 ]
				}

			}
, 			{
				"box" : 				{
					"bgcolor" : [ 1.0, 1.0, 1.0, 1.0 ],
					"fontname" : "Arial",
					"fontsize" : 13.0,
					"id" : "obj-4",
					"maxclass" : "newobj",
					"numinlets" : 2,
					"numoutlets" : 1,
					"outlettype" : [ "signal" ],
					"patching_rect" : [ 1048.0, 373.0, 75.0, 23.0 ],
					"text" : "cycle~ 0.99",
					"textcolor" : [ 0.0, 0.011764705882353, 1.0, 1.0 ]
				}

			}
, 			{
				"box" : 				{
					"bgcolor" : [ 1.0, 1.0, 1.0, 1.0 ],
					"fontname" : "Arial",
					"fontsize" : 13.0,
					"id" : "obj-5",
					"maxclass" : "newobj",
					"numinlets" : 1,
					"numoutlets" : 2,
					"outlettype" : [ "signal", "signal" ],
					"patching_rect" : [ 1048.0, 429.0, 73.0, 23.0 ],
					"text" : "zerox~ 0.4",
					"textcolor" : [ 0.0, 0.011764705882353, 1.0, 1.0 ]
				}

			}
, 			{
				"box" : 				{
					"bgcolor" : [ 1.0, 1.0, 1.0, 1.0 ],
					"fontname" : "Arial",
					"fontsize" : 13.0,
					"id" : "obj-6",
					"maxclass" : "newobj",
					"numinlets" : 4,
					"numoutlets" : 1,
					"outlettype" : [ "signal" ],
					"patching_rect" : [ 1109.5, 480.0, 125.0, 23.0 ],
					"text" : "reson~ 100 525 200",
					"textcolor" : [ 0.0, 0.011764705882353, 1.0, 1.0 ]
				}

			}
, 			{
				"box" : 				{
					"bgcolor" : [ 1.0, 1.0, 1.0, 1.0 ],
					"fontname" : "Arial",
					"fontsize" : 13.0,
					"id" : "obj-8",
					"maxclass" : "newobj",
					"numinlets" : 4,
					"numoutlets" : 1,
					"outlettype" : [ "signal" ],
					"patching_rect" : [ 1094.0, 513.666655999999989, 124.0, 23.0 ],
					"text" : "reson~ 100 411 200",
					"textcolor" : [ 0.0, 0.011764705882353, 1.0, 1.0 ]
				}

			}
, 			{
				"box" : 				{
					"coldcolor" : [ 0.0, 0.070588235294118, 1.0, 1.0 ],
					"fontsize" : 13.0,
					"id" : "obj-1",
					"lastchannelcount" : 0,
					"maxclass" : "live.gain~",
					"numinlets" : 2,
					"numoutlets" : 5,
					"orientation" : 1,
					"outlettype" : [ "signal", "signal", "", "float", "list" ],
					"parameter_enable" : 1,
					"patching_rect" : [ 1089.0, 210.666655999999989, 101.0, 41.0 ],
					"saved_attribute_attributes" : 					{
						"textcolor" : 						{
							"expression" : ""
						}
,
						"valueof" : 						{
							"parameter_initial" : [ -70 ],
							"parameter_initial_enable" : 1,
							"parameter_longname" : "live.gain~",
							"parameter_mmax" : 6.0,
							"parameter_mmin" : -70.0,
							"parameter_shortname" : "live.gain~",
							"parameter_type" : 0,
							"parameter_unitstyle" : 4
						}

					}
,
					"showname" : 0,
					"textcolor" : [ 0.0, 0.011764705882353, 1.0, 1.0 ],
					"varname" : "live.gain~"
				}

			}
, 			{
				"box" : 				{
					"bgcolor" : [ 1.0, 1.0, 1.0, 1.0 ],
					"id" : "obj-7",
					"local" : 1,
					"maxclass" : "ezdac~",
					"numinlets" : 2,
					"numoutlets" : 0,
					"patching_rect" : [ 1089.0, 260.666655999999989, 44.0, 44.0 ],
					"prototypename" : "helpfile"
				}

			}
, 			{
				"box" : 				{
					"bgcolor" : [ 1.0, 1.0, 1.0, 1.0 ],
					"fontname" : "Arial",
					"fontsize" : 13.0,
					"id" : "obj-13",
					"maxclass" : "newobj",
					"numinlets" : 2,
					"numoutlets" : 1,
					"outlettype" : [ "signal" ],
					"patching_rect" : [ 958.0, 373.0, 78.0, 23.0 ],
					"text" : "cycle~ 0.97",
					"textcolor" : [ 0.0, 0.011764705882353, 1.0, 1.0 ]
				}

			}
, 			{
				"box" : 				{
					"bgcolor" : [ 1.0, 1.0, 1.0, 1.0 ],
					"fontname" : "Arial",
					"fontsize" : 13.0,
					"id" : "obj-14",
					"maxclass" : "newobj",
					"numinlets" : 1,
					"numoutlets" : 2,
					"outlettype" : [ "signal", "signal" ],
					"patching_rect" : [ 958.0, 429.0, 73.0, 23.0 ],
					"text" : "zerox~ 0.4",
					"textcolor" : [ 0.0, 0.011764705882353, 1.0, 1.0 ]
				}

			}
, 			{
				"box" : 				{
					"bgcolor" : [ 1.0, 1.0, 1.0, 1.0 ],
					"fontname" : "Arial",
					"fontsize" : 13.0,
					"id" : "obj-15",
					"maxclass" : "newobj",
					"numinlets" : 4,
					"numoutlets" : 1,
					"outlettype" : [ "signal" ],
					"patching_rect" : [ 977.0, 480.0, 129.0, 23.0 ],
					"text" : "reson~ 100 523 200",
					"textcolor" : [ 0.0, 0.011764705882353, 1.0, 1.0 ]
				}

			}
, 			{
				"box" : 				{
					"bgcolor" : [ 1.0, 1.0, 1.0, 1.0 ],
					"fontname" : "Arial",
					"fontsize" : 13.0,
					"id" : "obj-16",
					"maxclass" : "newobj",
					"numinlets" : 4,
					"numoutlets" : 1,
					"outlettype" : [ "signal" ],
					"patching_rect" : [ 899.0, 513.666655999999989, 129.0, 23.0 ],
					"text" : "reson~ 100 410 200",
					"textcolor" : [ 0.0, 0.011764705882353, 1.0, 1.0 ]
				}

			}
, 			{
				"box" : 				{
					"bgcolor" : [ 1.0, 1.0, 1.0, 1.0 ],
					"fontname" : "Arial",
					"fontsize" : 13.0,
					"id" : "obj-17",
					"maxclass" : "newobj",
					"numinlets" : 1,
					"numoutlets" : 2,
					"outlettype" : [ "signal", "signal" ],
					"patching_rect" : [ 868.0, 429.0, 73.0, 23.0 ],
					"text" : "zerox~ 0.5",
					"textcolor" : [ 0.0, 0.011764705882353, 1.0, 1.0 ]
				}

			}
, 			{
				"box" : 				{
					"bgcolor" : [ 1.0, 1.0, 1.0, 1.0 ],
					"fontname" : "Arial",
					"fontsize" : 13.0,
					"id" : "obj-18",
					"maxclass" : "newobj",
					"numinlets" : 2,
					"numoutlets" : 1,
					"outlettype" : [ "signal" ],
					"patching_rect" : [ 868.0, 373.0, 78.0, 23.0 ],
					"text" : "cycle~ 1.21",
					"textcolor" : [ 0.0, 0.011764705882353, 1.0, 1.0 ]
				}

			}
, 			{
				"box" : 				{
					"bgcolor" : [ 1.0, 1.0, 1.0, 1.0 ],
					"fontname" : "Arial",
					"fontsize" : 13.0,
					"id" : "obj-19",
					"maxclass" : "newobj",
					"numinlets" : 2,
					"numoutlets" : 1,
					"outlettype" : [ "signal" ],
					"patching_rect" : [ 709.0, 373.0, 70.0, 23.0 ],
					"text" : "cycle~ 1.1",
					"textcolor" : [ 0.0, 0.011764705882353, 1.0, 1.0 ]
				}

			}
, 			{
				"box" : 				{
					"bgcolor" : [ 1.0, 1.0, 1.0, 1.0 ],
					"fontname" : "Arial",
					"fontsize" : 13.0,
					"id" : "obj-20",
					"maxclass" : "newobj",
					"numinlets" : 1,
					"numoutlets" : 2,
					"outlettype" : [ "signal", "signal" ],
					"patching_rect" : [ 709.0, 429.0, 50.0, 23.0 ],
					"text" : "zerox~",
					"textcolor" : [ 0.0, 0.011764705882353, 1.0, 1.0 ]
				}

			}
, 			{
				"box" : 				{
					"bgcolor" : [ 1.0, 1.0, 1.0, 1.0 ],
					"fontname" : "Arial",
					"fontsize" : 13.0,
					"id" : "obj-21",
					"maxclass" : "newobj",
					"numinlets" : 4,
					"numoutlets" : 1,
					"outlettype" : [ "signal" ],
					"patching_rect" : [ 723.0, 460.0, 129.0, 23.0 ],
					"text" : "reson~ 100 358 200",
					"textcolor" : [ 0.0, 0.011764705882353, 1.0, 1.0 ]
				}

			}
, 			{
				"box" : 				{
					"bgcolor" : [ 1.0, 1.0, 1.0, 1.0 ],
					"fontname" : "Arial",
					"fontsize" : 13.0,
					"id" : "obj-23",
					"maxclass" : "newobj",
					"numinlets" : 4,
					"numoutlets" : 1,
					"outlettype" : [ "signal" ],
					"patching_rect" : [ 805.0, 485.0, 129.0, 23.0 ],
					"text" : "reson~ 100 220 200",
					"textcolor" : [ 0.0, 0.011764705882353, 1.0, 1.0 ]
				}

			}
, 			{
				"box" : 				{
					"bgcolor" : [ 1.0, 1.0, 1.0, 1.0 ],
					"fontname" : "Arial",
					"fontsize" : 13.0,
					"id" : "obj-24",
					"maxclass" : "newobj",
					"numinlets" : 1,
					"numoutlets" : 2,
					"outlettype" : [ "signal", "signal" ],
					"patching_rect" : [ 791.0, 429.0, 50.0, 23.0 ],
					"text" : "zerox~",
					"textcolor" : [ 0.0, 0.011764705882353, 1.0, 1.0 ]
				}

			}
, 			{
				"box" : 				{
					"bgcolor" : [ 1.0, 1.0, 1.0, 1.0 ],
					"fontname" : "Arial",
					"fontsize" : 13.0,
					"id" : "obj-25",
					"maxclass" : "newobj",
					"numinlets" : 2,
					"numoutlets" : 1,
					"outlettype" : [ "signal" ],
					"patching_rect" : [ 791.0, 373.0, 60.0, 23.0 ],
					"text" : "cycle~ 1",
					"textcolor" : [ 0.0, 0.011764705882353, 1.0, 1.0 ]
				}

			}
 ],
		"lines" : [ 			{
				"patchline" : 				{
					"destination" : [ "obj-7", 1 ],
					"source" : [ "obj-1", 1 ]
				}

			}
, 			{
				"patchline" : 				{
					"destination" : [ "obj-7", 0 ],
					"source" : [ "obj-1", 0 ]
				}

			}
, 			{
				"patchline" : 				{
					"destination" : [ "obj-22", 0 ],
					"source" : [ "obj-12", 0 ]
				}

			}
, 			{
				"patchline" : 				{
					"destination" : [ "obj-14", 0 ],
					"source" : [ "obj-13", 0 ]
				}

			}
, 			{
				"patchline" : 				{
					"destination" : [ "obj-15", 0 ],
					"source" : [ "obj-14", 1 ]
				}

			}
, 			{
				"patchline" : 				{
					"destination" : [ "obj-1", 1 ],
					"order" : 0,
					"source" : [ "obj-15", 0 ]
				}

			}
, 			{
				"patchline" : 				{
					"destination" : [ "obj-40", 1 ],
					"order" : 1,
					"source" : [ "obj-15", 0 ]
				}

			}
, 			{
				"patchline" : 				{
					"destination" : [ "obj-1", 0 ],
					"order" : 0,
					"source" : [ "obj-16", 0 ]
				}

			}
, 			{
				"patchline" : 				{
					"destination" : [ "obj-43", 1 ],
					"order" : 1,
					"source" : [ "obj-16", 0 ]
				}

			}
, 			{
				"patchline" : 				{
					"destination" : [ "obj-16", 0 ],
					"source" : [ "obj-17", 1 ]
				}

			}
, 			{
				"patchline" : 				{
					"destination" : [ "obj-17", 0 ],
					"source" : [ "obj-18", 0 ]
				}

			}
, 			{
				"patchline" : 				{
					"destination" : [ "obj-20", 0 ],
					"source" : [ "obj-19", 0 ]
				}

			}
, 			{
				"patchline" : 				{
					"destination" : [ "obj-21", 0 ],
					"source" : [ "obj-20", 1 ]
				}

			}
, 			{
				"patchline" : 				{
					"destination" : [ "obj-1", 0 ],
					"order" : 0,
					"source" : [ "obj-21", 0 ]
				}

			}
, 			{
				"patchline" : 				{
					"destination" : [ "obj-39", 1 ],
					"order" : 1,
					"source" : [ "obj-21", 0 ]
				}

			}
, 			{
				"patchline" : 				{
					"destination" : [ "obj-8", 0 ],
					"source" : [ "obj-22", 1 ]
				}

			}
, 			{
				"patchline" : 				{
					"destination" : [ "obj-1", 1 ],
					"order" : 0,
					"source" : [ "obj-23", 0 ]
				}

			}
, 			{
				"patchline" : 				{
					"destination" : [ "obj-42", 1 ],
					"order" : 1,
					"source" : [ "obj-23", 0 ]
				}

			}
, 			{
				"patchline" : 				{
					"destination" : [ "obj-23", 0 ],
					"source" : [ "obj-24", 1 ]
				}

			}
, 			{
				"patchline" : 				{
					"destination" : [ "obj-24", 0 ],
					"source" : [ "obj-25", 0 ]
				}

			}
, 			{
				"patchline" : 				{
					"destination" : [ "obj-29", 0 ],
					"source" : [ "obj-28", 0 ]
				}

			}
, 			{
				"patchline" : 				{
					"destination" : [ "obj-36", 0 ],
					"source" : [ "obj-29", 1 ]
				}

			}
, 			{
				"patchline" : 				{
					"destination" : [ "obj-34", 0 ],
					"source" : [ "obj-33", 0 ]
				}

			}
, 			{
				"patchline" : 				{
					"destination" : [ "obj-35", 0 ],
					"source" : [ "obj-34", 1 ]
				}

			}
, 			{
				"patchline" : 				{
					"destination" : [ "obj-1", 0 ],
					"order" : 1,
					"source" : [ "obj-35", 0 ]
				}

			}
, 			{
				"patchline" : 				{
					"destination" : [ "obj-38", 1 ],
					"order" : 0,
					"source" : [ "obj-35", 0 ]
				}

			}
, 			{
				"patchline" : 				{
					"destination" : [ "obj-1", 1 ],
					"order" : 1,
					"source" : [ "obj-36", 0 ]
				}

			}
, 			{
				"patchline" : 				{
					"destination" : [ "obj-37", 1 ],
					"order" : 0,
					"source" : [ "obj-36", 0 ]
				}

			}
, 			{
				"patchline" : 				{
					"destination" : [ "obj-5", 0 ],
					"source" : [ "obj-4", 0 ]
				}

			}
, 			{
				"patchline" : 				{
					"destination" : [ "obj-45", 0 ],
					"source" : [ "obj-44", 0 ]
				}

			}
, 			{
				"patchline" : 				{
					"destination" : [ "obj-46", 0 ],
					"source" : [ "obj-45", 1 ]
				}

			}
, 			{
				"patchline" : 				{
					"destination" : [ "obj-1", 0 ],
					"order" : 1,
					"source" : [ "obj-46", 0 ]
				}

			}
, 			{
				"patchline" : 				{
					"destination" : [ "obj-49", 1 ],
					"order" : 0,
					"source" : [ "obj-46", 0 ]
				}

			}
, 			{
				"patchline" : 				{
					"destination" : [ "obj-51", 0 ],
					"source" : [ "obj-47", 1 ]
				}

			}
, 			{
				"patchline" : 				{
					"destination" : [ "obj-47", 0 ],
					"source" : [ "obj-48", 0 ]
				}

			}
, 			{
				"patchline" : 				{
					"destination" : [ "obj-6", 0 ],
					"source" : [ "obj-5", 1 ]
				}

			}
, 			{
				"patchline" : 				{
					"destination" : [ "obj-1", 1 ],
					"order" : 1,
					"source" : [ "obj-51", 0 ]
				}

			}
, 			{
				"patchline" : 				{
					"destination" : [ "obj-50", 1 ],
					"order" : 0,
					"source" : [ "obj-51", 0 ]
				}

			}
, 			{
				"patchline" : 				{
					"destination" : [ "obj-1", 1 ],
					"order" : 0,
					"source" : [ "obj-6", 0 ]
				}

			}
, 			{
				"patchline" : 				{
					"destination" : [ "obj-41", 1 ],
					"order" : 1,
					"source" : [ "obj-6", 0 ]
				}

			}
, 			{
				"patchline" : 				{
					"destination" : [ "obj-1", 0 ],
					"source" : [ "obj-8", 0 ]
				}

			}
 ],
		"parameters" : 		{
			"obj-1" : [ "live.gain~", "live.gain~", 0 ],
			"parameterbanks" : 			{
				"0" : 				{
					"index" : 0,
					"name" : "",
					"parameters" : [ "-", "-", "-", "-", "-", "-", "-", "-" ]
				}

			}
,
			"inherited_shortname" : 1
		}
,
		"dependency_cache" : [  ],
		"autosave" : 0,
		"default_bgcolor" : [ 1.0, 1.0, 1.0, 1.0 ],
		"accentcolor" : [ 1.0, 1.0, 1.0, 1.0 ],
		"bgcolor" : [ 1.0, 1.0, 1.0, 1.0 ],
		"editing_bgcolor" : [ 1.0, 1.0, 1.0, 1.0 ],
		"bgfillcolor_type" : "gradient",
		"bgfillcolor_color" : [ 1.0, 1.0, 1.0, 1.0 ],
		"bgfillcolor_color1" : [ 1.0, 1.0, 1.0, 1.0 ],
		"bgfillcolor_color2" : [ 0.2, 0.2, 0.2, 1.0 ],
		"bgfillcolor_angle" : 270.0,
		"bgfillcolor_proportion" : 0.5,
		"bgfillcolor_autogradient" : 0.0
	}

}
